<?xml version="1.0" encoding="iso-8859-1"?>
<!-- Uploaded to: SVG Repo, www.svgrepo.com, Generator: SVG Repo Mixer Tools -->
<svg height="800px" width="800px" version="1.1" id="Layer_1" xmlns="http://www.w3.org/2000/svg" xmlns:xlink="http://www.w3.org/1999/xlink" 
	 viewBox="0 0 512 512" xml:space="preserve" fill="black">
<g>
	<g>
		<path d="M439.197,159.224c-5.731-1.312-11.439,2.277-12.748,8.009c-1.309,5.732,2.277,11.44,8.009,12.748
			c39.456,9.007,56.878,24.728,56.229,32.515c-1.298,15.565-18.318,42.781-41.389,66.184
			c-25.039,25.397-52.317,41.805-71.191,42.822c-29.997,1.609-82.331-59.942-111.463-103.355v-20.582
			c32.006-14.518,68.135-22.638,104.938-23.529c5.877-0.143,10.527-5.023,10.385-10.9s-5.046-10.54-10.9-10.385
			c-36.319,0.88-72.075,8.33-104.422,21.637v-10.565l49.651-58.78c3.793-4.491,3.228-11.209-1.264-15.002
			c-4.491-3.793-11.208-3.229-15.002,1.264L256,143.432l-44.03-52.126c-3.795-4.494-10.513-5.058-15.002-1.264
			c-4.491,3.793-5.057,10.51-1.264,15.002l49.651,58.78v10.534c-47.404-19.578-92.365-22.639-122.964-21.483
			c-40.943,1.547-78.799,11.654-101.263,27.039C2.443,192.707-0.624,205.655,0.094,214.265
			c2.096,25.158,25.883,57.492,47.445,79.363c12.657,12.838,43.659,41.288,75.48,47.848c3.551,48.611,34.413,68.727,48.135,75.304
			c10.477,5.032,21.595,7.693,32.15,7.693c21.401,0,41.123-12.215,52.696-29.971c11.573,17.756,31.295,29.971,52.696,29.971
			c12.811,0,26.525-3.96,38.615-11.152c0.009-0.005,0.018-0.011,0.027-0.016c0.014-0.009,0.028-0.017,0.042-0.025
			c14.661-8.741,38.515-29.353,41.606-71.804c31.82-6.562,62.819-35.01,75.474-47.847c21.562-21.871,45.349-54.205,47.445-79.363
			C513.844,190.995,485.983,169.905,439.197,159.224z M133.89,321.502c-18.873-1.017-46.151-17.425-71.19-42.822
			c-23.072-23.403-40.093-50.62-41.389-66.184c-0.341-4.09,4.087-9.703,11.845-15.017c18.997-13.01,53.498-21.95,90.037-23.33
			c30.162-1.141,75.329,2.126,122.16,23.417v20.58C216.228,261.556,163.917,323.143,133.89,321.502z M170.782,391.866
			c-11.349-8.239-23.894-23.282-26.367-50.032c19.644-3.994,42.454-20.213,69.204-49.174L170.782,391.866z M245.353,359.534
			c0,22.843-20.043,43.647-42.05,43.647c-4.256,0-8.809-0.697-13.359-1.984l55.41-128.326V359.534z M308.695,403.181
			c-22.008,0-42.05-20.804-42.05-43.647v-90.467l61.154,130.193C321.421,401.792,314.778,403.181,308.695,403.181z M346.001,387.932
			l-41.91-89.224c24.303,25.181,45.259,39.419,63.49,43.125C365.378,365.098,355.407,379.429,346.001,387.932z"/>
	</g>
</g>
<g>
	<g>
		<path d="M409.685,154.33c-1.353-0.147-2.715-0.284-4.086-0.412c-5.853-0.542-11.042,3.759-11.587,9.613
			c-0.546,5.854,3.758,11.042,9.612,11.588c1.264,0.117,2.52,0.244,3.768,0.379c0.39,0.043,0.776,0.063,1.159,0.063
			c5.365,0,9.98-4.044,10.571-9.5C419.755,160.215,415.529,154.963,409.685,154.33z"/>
	</g>
</g>
</svg>